# xmcd CD database file
#
# Track frame offsets:
#	150
#	7557
#	38162
#	56647
#	83860
#	107940
#	136920
#	157360
#	175625
#	198842
#	227182
#	245012
#	264172
#	287787
#	309067
#
# Disc length: 4449 seconds
#
# Revision: 0
# Processed by: cddbd v1.5.1PL0 Copyright (c) Steve Scherf et al.
# Submitted via: CDex 1.50
#
DISCID=bf115f0f
DTITLE=F-BLOOD - F-BLOOD LIVE
DYEAR=1900
DGENRE=JPop
TTITLE0=BLOOD #1
TTITLE1=砂
TTITLE2=NANA
TTITLE3=雨になりそうな空
TTITLE4=BLUE MOON STONE
TTITLE5=Lonely Soldier
TTITLE6=白い雲のように
TTITLE7=寝顔
TTITLE8=GENERATION GAP
TTITLE9=指輪
TTITLE10=SHOOTING STAR
TTITLE11=BLOOD #2
TTITLE12=「I」
TTITLE13=You Love Rock'n' Roll
TTITLE14=LONG ROAD
EXTD=
EXTT0=
EXTT1=
EXTT2=
EXTT3=
EXTT4=
EXTT5=
EXTT6=
EXTT7=
EXTT8=
EXTT9=
EXTT10=
EXTT11=
EXTT12=
EXTT13=
EXTT14=
PLAYORDER=
